<?xml version="1.0" standalone="no"?>
<!DOCTYPE svg PUBLIC "-//W3C//DTD SVG 20010904//EN"
 "http://www.w3.org/TR/2001/REC-SVG-20010904/DTD/svg10.dtd">
<svg version="1.0" xmlns="http://www.w3.org/2000/svg"
 width="359.000000pt" height="348.000000pt" viewBox="0 0 359.000000 348.000000"
 preserveAspectRatio="xMidYMid meet">
<metadata>
Created by potrace 1.16, written by Peter Selinger 2001-2019
</metadata>
<g transform="translate(0.000000,348.000000) scale(0.100000,-0.100000)"
fill="#c2dfe3" stroke="none">
<path d="M1020 3383 c-191 -68 -770 -326 -770 -344 0 -15 369 -189 895 -422
292 -130 575 -256 630 -281 55 -25 101 -41 103 -36 2 5 -3 21 -11 37 -30 57
15 163 70 163 18 0 14 30 -11 95 -36 94 -12 261 50 342 14 19 22 38 18 43 -5
4 -34 15 -64 25 -96 30 -257 99 -535 228 -285 132 -344 157 -354 156 -3 0 -13
-3 -21 -6z"/>
<path d="M2234 3092 c-129 -52 -212 -126 -263 -232 -22 -46 -26 -69 -26 -140
0 -81 2 -90 47 -180 65 -133 188 -271 364 -407 104 -81 285 -154 469 -188 141
-27 309 -12 428 38 47 20 143 111 167 157 69 136 61 379 -17 535 -32 62 -102
145 -170 200 -45 37 -67 46 -165 70 -62 15 -174 50 -248 77 -169 63 -276 87
-410 94 -99 4 -109 3 -176 -24z"/>
<path d="M207 2958 c-4 -29 -9 -132 -13 -229 -7 -168 -6 -177 12 -187 17 -9
23 -4 49 45 36 70 97 117 140 110 40 -7 137 -44 161 -62 18 -13 16 -17 -47
-74 -37 -34 -72 -74 -77 -91 l-11 -30 107 -51 c96 -45 108 -48 117 -33 25 42
73 100 107 127 l36 29 58 -17 c78 -23 136 -53 132 -69 -2 -8 -23 -29 -48 -48
-49 -37 -92 -94 -88 -116 2 -7 45 -33 96 -57 l92 -44 34 53 c18 29 52 67 75
85 36 29 46 32 78 26 49 -9 163 -61 163 -74 0 -6 -25 -29 -56 -52 -45 -35 -94
-98 -94 -124 0 -6 196 -105 208 -105 5 0 17 18 27 41 19 42 107 129 131 129
29 0 142 -43 168 -64 l28 -22 -53 -40 c-57 -41 -109 -118 -92 -135 5 -5 68
-36 139 -67 l129 -58 3 210 c2 116 0 225 -3 241 -5 29 -19 37 -297 164 -160
73 -422 191 -582 261 -436 192 -660 295 -738 340 -38 22 -73 40 -78 40 -4 0
-10 -24 -13 -52z"/>
<path d="M342 2650 c-22 -14 -43 -40 -60 -78 -26 -56 -27 -61 -28 -269 -1
-195 -3 -216 -25 -277 -18 -49 -21 -68 -12 -77 32 -32 105 48 122 134 6 29 18
112 26 186 23 201 28 216 100 288 l62 62 -46 19 c-76 32 -102 35 -139 12z"/>
<path d="M738 2433 c-71 -75 -73 -83 -74 -328 0 -203 -2 -224 -23 -274 -35
-85 -10 -108 55 -48 43 40 58 91 79 277 24 206 44 262 115 322 22 19 40 37 40
40 0 11 -99 48 -127 48 -20 0 -40 -11 -65 -37z"/>
<path d="M1994 2387 c6 -53 30 -101 82 -167 118 -149 186 -210 317 -280 l74
-40 38 35 c20 20 36 37 34 39 -2 2 -31 17 -64 34 -33 17 -94 54 -135 83 -74
52 -255 225 -319 304 l-32 40 5 -48z"/>
<path d="M1144 2268 c-20 -18 -48 -55 -60 -83 -23 -47 -24 -61 -24 -257 0
-183 -2 -214 -20 -260 -32 -85 -23 -109 31 -82 56 28 80 100 103 319 20 183
35 226 104 292 l54 52 -35 14 c-31 13 -50 20 -99 33 -9 3 -32 -9 -54 -28z"/>
<path d="M1993 1960 l2 -235 118 -59 c65 -32 120 -56 122 -54 2 2 7 41 11 86
l7 83 -35 37 c-78 81 -148 196 -216 352 -8 19 -10 -34 -9 -210z"/>
<path d="M1554 2078 c-21 -18 -48 -55 -60 -83 -23 -47 -24 -61 -24 -257 0
-183 -2 -214 -20 -260 -33 -86 -24 -111 29 -84 42 22 71 90 87 209 47 332 52
349 129 413 25 20 42 40 38 44 -9 9 -120 50 -133 50 -5 0 -26 -15 -46 -32z"/>
<path d="M2139 1994 c15 -31 76 -111 125 -164 79 -87 221 -170 291 -170 18 0
24 7 29 38 3 20 6 42 6 48 0 6 -35 24 -77 39 -128 45 -278 130 -352 199 -25
23 -31 26 -22 10z"/>
<path d="M2662 1907 c-7 -8 -8 -25 -3 -43 7 -26 13 -30 72 -42 35 -7 131 -13
213 -13 l149 -1 51 52 c50 51 50 52 21 46 -77 -17 -271 -18 -356 -2 -104 19
-133 20 -147 3z"/>
<path d="M1873 1142 c-67 -119 -86 -287 -58 -506 12 -93 15 -167 11 -223 -3
-46 -9 -121 -12 -168 l-7 -84 29 -12 c76 -30 279 -17 325 20 28 23 18 61 -15
61 -32 0 -42 15 -56 87 -13 65 -5 93 25 93 17 0 39 290 32 426 -6 113 -23 193
-37 178 -5 -5 -5 -40 -1 -77 6 -57 4 -71 -9 -80 -9 -7 -20 -30 -25 -52 -8 -31
-15 -41 -34 -43 -15 -3 -30 3 -38 14 -17 23 -18 185 -2 201 9 9 8 26 -4 70 -8
32 -15 69 -14 83 2 21 -3 25 -33 30 -20 3 -40 9 -46 13 -6 3 -20 -10 -31 -31z"/>
</g>
</svg>
